<svg width="18" height="23" viewBox="0 0 18 23" fill="none" xmlns="http://www.w3.org/2000/svg">
<path d="M9 0C5.5395 0 2.7 2.68759 2.7 5.96296V8.41204C1.84562 9.20256 1.16667 10.1467 0.703024 11.1889C0.239374 12.2312 0.000356414 13.3506 0 14.4815C0 19.1752 4.041 23 9 23C13.959 23 18 19.1752 18 14.4815C17.9996 13.3506 17.7606 12.2312 17.297 11.1889C16.8333 10.1467 16.1544 9.20256 15.3 8.41204V5.96296C15.3 2.68759 12.4605 0 9 0ZM9 1.7037C11.4795 1.7037 13.5 3.61611 13.5 5.96296V7.13426C12.1725 6.40167 10.6434 5.96296 9 5.96296C7.3566 5.96296 5.8275 6.40252 4.5 7.13426V5.96296C4.5 3.61611 6.5205 1.7037 9 1.7037ZM9 7.66667C12.987 7.66667 16.2 10.7078 16.2 14.4815C16.2 18.2552 12.987 21.2963 9 21.2963C5.013 21.2963 1.8 18.2552 1.8 14.4815C1.8 10.7078 5.013 7.66667 9 7.66667ZM9 12.7778C8.52261 12.7778 8.06477 12.9573 7.72721 13.2768C7.38964 13.5963 7.2 14.0296 7.2 14.4815C7.2 15.1119 7.5627 15.6511 8.1 15.9467V18.7407H9.9V15.9467C10.4373 15.6511 10.8 15.1119 10.8 14.4815C10.8 14.0296 10.6104 13.5963 10.2728 13.2768C9.93523 12.9573 9.47739 12.7778 9 12.7778Z" fill="#C4C4C4"/>
</svg>
